<?xml version="1.0" encoding="UTF-8" standalone="no"?> <svg width="64" height="64" viewBox="0 0 64 64" fill="none" xmlns="http://www.w3.org/2000/svg">
<path d="M59 24C58.2044 24 57.4413 24.3161 56.8787 24.8787C56.3161 25.4413 56 26.2044 56 27V30.12L49 27.57V25H47V26.85L45 26.12V23H43V25.39L39.65 24.17L38 21.7V15.4C38.0046 13.68 37.6646 11.9765 37 10.39L33.85 2.84002C33.6988 2.47583 33.4433 2.16446 33.1156 1.94508C32.7879 1.72569 32.4027 1.60807 32.0083 1.607C31.614 1.60593 31.2281 1.72146 30.8993 1.93907C30.5704 2.15668 30.3132 2.46665 30.16 2.83002L27 10.4C26.3345 11.9827 25.9944 13.6831 26 15.4V21.7L24.35 24.17L21 25.39V23H19V26.12L17 26.85V25H15V27.57L8 30.12V27C8 26.2044 7.68393 25.4413 7.12132 24.8787C6.55871 24.3161 5.79565 24 5 24C4.20508 24.0024 3.4434 24.3192 2.8813 24.8813C2.31921 25.4434 2.00237 26.2051 2 27V41C2 41.2652 2.10536 41.5196 2.29289 41.7071C2.48043 41.8947 2.73478 42 3 42H24V48.21L16.09 51.47C15.4595 51.7255 14.9358 52.1896 14.6064 52.7848C14.277 53.3799 14.1617 54.0701 14.28 54.74L14.85 58.16C14.893 58.4219 14.9876 58.6725 15.1284 58.8974C15.2691 59.1223 15.4533 59.317 15.67 59.47C16.0037 59.7049 16.4019 59.8307 16.81 59.83C16.9378 59.8316 17.0653 59.8181 17.19 59.79L24 58.52V61C24 61.2652 24.1054 61.5196 24.2929 61.7071C24.4804 61.8947 24.7348 62 25 62H29C29.2652 62 29.5196 61.8947 29.7071 61.7071C29.8946 61.5196 30 61.2652 30 61V57.39L32 57.02L34 57.39V61C34 61.2652 34.1054 61.5196 34.2929 61.7071C34.4804 61.8947 34.7348 62 35 62H39C39.2652 62 39.5196 61.8947 39.7071 61.7071C39.8946 61.5196 40 61.2652 40 61V58.52L46.81 59.79C47.0711 59.8418 47.34 59.8403 47.6006 59.7857C47.8612 59.7312 48.1081 59.6246 48.3265 59.4725C48.5449 59.3203 48.7305 59.1256 48.872 58.9001C49.0134 58.6746 49.108 58.4229 49.15 58.16L49.72 54.74C49.8383 54.0701 49.723 53.3799 49.3936 52.7848C49.0642 52.1896 48.5405 51.7255 47.91 51.47L40 48.21V42H61C61.2652 42 61.5196 41.8947 61.7071 41.7071C61.8946 41.5196 62 41.2652 62 41V27C61.9976 26.2051 61.6808 25.4434 61.1187 24.8813C60.5566 24.3192 59.7949 24.0024 59 24V24ZM4 27C4 26.7348 4.10536 26.4804 4.29289 26.2929C4.48043 26.1054 4.73478 26 5 26C5.13349 25.9988 5.26573 26.0258 5.38807 26.0793C5.51042 26.1327 5.62012 26.2113 5.71 26.31C5.8036 26.3986 5.87772 26.5057 5.92765 26.6245C5.97758 26.7433 6.00222 26.8712 6 27V30.85L4 31.57V27ZM4 40V33.7L24 26.43V40H4ZM28 60H26V58.14L28 57.77V60ZM38 60H36V57.77L38 58.14V60ZM47.15 53.32C47.3596 53.4057 47.5334 53.5606 47.6426 53.759C47.7518 53.9573 47.7897 54.1871 47.75 54.41L47.18 57.83L32.18 55.02C32.0619 54.99 31.9381 54.99 31.82 55.02L16.82 57.83L16.25 54.41C16.2103 54.1871 16.2482 53.9573 16.3574 53.759C16.4666 53.5606 16.6404 53.4057 16.85 53.32L25.38 49.8C25.5644 49.7276 25.7225 49.6009 25.8333 49.4366C25.944 49.2722 26.0021 49.0781 26 48.88V25.3L27.83 22.55C27.9412 22.3882 28.0005 22.1964 28 22V15.4C27.9964 13.9482 28.2819 12.5103 28.84 11.17L32 3.61002L35.16 11.16C35.7172 12.504 36.0027 13.9451 36 15.4V22C35.9995 22.1964 36.0588 22.3882 36.17 22.55L38 25.3V48.88C37.9979 49.0781 38.056 49.2722 38.1667 49.4366C38.2775 49.6009 38.4356 49.7276 38.62 49.8L47.15 53.32ZM60 40H40V26.43L60 33.7V40ZM60 31.57L58 30.85V27C57.9988 26.8665 58.0258 26.7343 58.0793 26.6119C58.1327 26.4896 58.2113 26.3799 58.31 26.29C58.3986 26.1964 58.5057 26.1223 58.6245 26.0724C58.7433 26.0224 58.8712 25.9978 59 26C59.2652 26 59.5196 26.1054 59.7071 26.2929C59.8946 26.4804 60 26.7348 60 27V31.57Z" fill="black"/>
<path d="M35 21V14C35 13.2044 34.6839 12.4413 34.1213 11.8787C33.5587 11.3161 32.7956 11 32 11C31.2044 11 30.4413 11.3161 29.8787 11.8787C29.3161 12.4413 29 13.2044 29 14V21C29 21.7956 29.3161 22.5587 29.8787 23.1213C30.4413 23.6839 31.2044 24 32 24C32.7956 24 33.5587 23.6839 34.1213 23.1213C34.6839 22.5587 35 21.7956 35 21ZM33 21C33 21.2652 32.8946 21.5196 32.7071 21.7071C32.5196 21.8946 32.2652 22 32 22C31.7348 22 31.4804 21.8946 31.2929 21.7071C31.1054 21.5196 31 21.2652 31 21V14C31 13.7348 31.1054 13.4804 31.2929 13.2929C31.4804 13.1054 31.7348 13 32 13C32.2652 13 32.5196 13.1054 32.7071 13.2929C32.8946 13.4804 33 13.7348 33 14V21Z" fill="black"/>
<path d="M30 46H28V54H30V46Z" fill="black"/>
<path d="M36 46H34V54H36V46Z" fill="black"/>
</svg>
