<?xml version="1.0" encoding="UTF-8" standalone="no"?> <svg xmlns="http://www.w3.org/2000/svg" viewBox="0 0 64 64"><g id="_02-Blueprint" data-name="02-Blueprint"><path d="M56,27V55a1,1,0,0,1-1,1H21a1,1,0,0,1-1-1V25a1,1,0,0,1,1-1H31a1,1,0,0,1,0,2H22V38.00049h8V31a1,1,0,0,1,2,0v7.00049h2A.99921.99921,0,0,1,34.99951,39v8a.99951.99951,0,0,1-1.999,0V39.99951h-1.998L31,40l-.00244-.00049H22V54H39V45a1,1,0,0,1,2,0v9H54V40H40a1,1,0,0,1-1-1V33a1,1,0,0,1,2,0v5H54V28H49a1,1,0,0,1,0-2h6A1,1,0,0,1,56,27Zm6-8V59.00732a2.98659,2.98659,0,0,1-2.9873,3h-.01905L9,62a7.00849,7.00849,0,0,1-7-7V17a6.9957,6.9957,0,0,1,13.92017-1H41.57965L54.23779,3.32324l.001-.001a4.53543,4.53543,0,1,1,6.41309,6.415L54.39838,16H59A3.00328,3.00328,0,0,1,62,19ZM54.48865,5.90271,39.91315,20.49908,41,21.58594,55.58594,7ZM38.2168,25.78369l3.55938-.59344-2.96649-2.9665ZM58.07434,9.4884,57,8.41406,42.41406,23l1.085,1.085ZM55.92719,4.51312,59.4635,8.04944a2.50475,2.50475,0,0,0-.22522-3.31262A2.53287,2.53287,0,0,0,55.92719,4.51312ZM4,50.10547a6.98965,6.98965,0,0,1,10,0V17A5,5,0,0,0,4,17ZM60,19a1.0013,1.0013,0,0,0-1-1H52.40131l-8.69379,8.70654a1.00071,1.00071,0,0,1-.543.27979l-6,1A.9886.9886,0,0,1,37,28a1.00015,1.00015,0,0,1-.98633-1.16455l1-6a1.00144,1.00144,0,0,1,.27881-.542L39.58258,18H16V55a1,1,0,0,1-2,0,5,5,0,1,0-5,5l50,.00732a.98716.98716,0,0,0,1-1Z"/></g></svg>