<?xml version="1.0" encoding="UTF-8" standalone="no"?>
<svg
   xmlns:dc="http://purl.org/dc/elements/1.1/"
   xmlns:cc="http://creativecommons.org/ns#"
   xmlns:rdf="http://www.w3.org/1999/02/22-rdf-syntax-ns#"
   xmlns:svg="http://www.w3.org/2000/svg"
   xmlns="http://www.w3.org/2000/svg"
   xmlns:sodipodi="http://sodipodi.sourceforge.net/DTD/sodipodi-0.dtd"
   xmlns:inkscape="http://www.inkscape.org/namespaces/inkscape"
   sodipodi:docname="pocket.svg"
   inkscape:version="1.0 (4035a4fb49, 2020-05-01)"
   id="svg1853"
   version="1.1"
   viewBox="0 0 16.933333 16.933334"
   height="64"
   width="64">
  <defs
     id="defs1847">
    <inkscape:path-effect
       hide_knots="false"
       only_selected="false"
       apply_with_radius="true"
       apply_no_radius="true"
       use_knot_distance="true"
       flexible="false"
       chamfer_steps="1"
       radius="0"
       mode="F"
       method="auto"
       unit="px"
       satellites_param="F,0,1,1,0,2.6459933,0,1 @ F,0,0,1,0,0,0,1 @ F,0,0,1,0,2.6459933,0,1"
       lpeversion="1"
       is_visible="true"
       id="path-effect2272"
       effect="fillet_chamfer" />
    <inkscape:path-effect
       hide_knots="false"
       only_selected="false"
       apply_with_radius="true"
       apply_no_radius="true"
       use_knot_distance="true"
       flexible="false"
       chamfer_steps="1"
       radius="0"
       mode="F"
       method="auto"
       unit="px"
       satellites_param="F,0,0,1,0,0,0,1 @ F,0,1,1,0,1.0583324,0,1 @ F,0,0,1,0,1.0583324,0,1 @ F,0,0,1,0,0,0,1 @ F,0,0,1,0,0,0,1"
       lpeversion="1"
       is_visible="true"
       id="path-effect3680"
       effect="fillet_chamfer" />
    <inkscape:path-effect
       hide_knots="false"
       only_selected="false"
       apply_with_radius="true"
       apply_no_radius="true"
       use_knot_distance="true"
       flexible="false"
       chamfer_steps="1"
       radius="0"
       mode="F"
       method="auto"
       unit="px"
       satellites_param="F,0,1,1,0,1.0583302,0,1 @ F,0,0,1,0,0,0,1 @ F,0,0,1,0,0,0,1 @ F,0,0,1,0,1.0583302,0,1"
       lpeversion="1"
       is_visible="true"
       id="path-effect4435"
       effect="fillet_chamfer" />
    <inkscape:path-effect
       hide_knots="false"
       only_selected="false"
       apply_with_radius="true"
       apply_no_radius="true"
       use_knot_distance="true"
       flexible="false"
       chamfer_steps="1"
       radius="0"
       mode="F"
       method="auto"
       unit="px"
       satellites_param="F,0,0,1,0,0,0,1 @ F,0,1,1,0,1.5874968,0,1 @ F,0,0,1,0,0,0,1 @ F,0,0,1,0,1.5874968,0,1 @ F,0,0,1,0,0,0,1"
       lpeversion="1"
       is_visible="true"
       id="path-effect4443"
       effect="fillet_chamfer" />
    <inkscape:path-effect
       effect="fillet_chamfer"
       id="path-effect4588"
       is_visible="true"
       lpeversion="1"
       satellites_param="F,0,0,1,0,0,0,1 @ F,0,0,1,0,0,0,1 @ F,0,0,1,0,1.0583301,0,1 @ F,0,0,1,0,0.71550134,0,1 @ F,0,0,1,0,0.71550134,0,1 @ F,0,1,1,0,1.5875,0,1 @ F,0,0,1,0,1.5875,0,1 @ F,0,0,1,0,0.71550134,0,1 @ F,0,0,1,0,0.71550134,0,1 @ F,0,0,1,0,1.0583301,0,1 @ F,0,0,1,0,0,0,1 @ F,0,0,1,0,0,0,1"
       unit="px"
       method="auto"
       mode="F"
       radius="0"
       chamfer_steps="1"
       flexible="false"
       use_knot_distance="true"
       apply_no_radius="true"
       apply_with_radius="true"
       only_selected="false"
       hide_knots="false" />
    <inkscape:path-effect
       hide_knots="false"
       only_selected="false"
       apply_with_radius="true"
       apply_no_radius="true"
       use_knot_distance="true"
       flexible="false"
       chamfer_steps="1"
       radius="0"
       mode="F"
       method="auto"
       unit="px"
       satellites_param="F,0,0,1,0,0,0,1 @ F,0,0,1,0,0,0,1 @ F,0,0,1,0,0,0,1 | F,0,0,1,0,0,0,1 @ F,0,0,1,0,0,0,1 @ F,0,0,1,0,2.1166668,0,1 @ F,0,0,1,0,0,0,1"
       lpeversion="1"
       is_visible="true"
       id="path-effect4631"
       effect="fillet_chamfer" />
    <inkscape:path-effect
       hide_knots="false"
       only_selected="false"
       apply_with_radius="true"
       apply_no_radius="true"
       use_knot_distance="true"
       flexible="false"
       chamfer_steps="1"
       radius="0"
       mode="F"
       method="auto"
       unit="px"
       satellites_param="F,0,0,1,0,0,0,1 @ F,0,1,1,0,1.6733731,0,1 @ F,0,0,1,0,0,0,1 @ F,0,0,1,0,1.6733731,0,1 @ F,0,0,1,0,0,0,1"
       lpeversion="1"
       is_visible="true"
       id="path-effect4716"
       effect="fillet_chamfer" />
    <inkscape:path-effect
       hide_knots="false"
       only_selected="false"
       apply_with_radius="true"
       apply_no_radius="true"
       use_knot_distance="true"
       flexible="false"
       chamfer_steps="1"
       radius="0"
       mode="F"
       method="auto"
       unit="px"
       satellites_param="F,0,0,1,0,0,0,1 @ F,0,1,1,0,0.52990334,0,1 @ F,0,0,1,0,0,0,1 | F,0,0,1,0,0,0,1 @ F,0,0,1,0,0,0,1 @ F,0,0,1,0,0,0,1 | F,0,0,1,0,0,0,1 @ F,0,0,1,0,0.52990334,0,1 @ F,0,0,1,0,0,0,1 | F,0,0,1,0,0,0,1 @ F,0,0,1,0,0,0,1 | F,0,0,1,0,0,0,1 @ F,0,0,1,0,0,0,1"
       lpeversion="1"
       is_visible="true"
       id="path-effect4718"
       effect="fillet_chamfer" />
  </defs>
  <sodipodi:namedview
     inkscape:window-maximized="1"
     inkscape:window-y="-8"
     inkscape:window-x="-8"
     inkscape:window-height="706"
     inkscape:window-width="1366"
     units="px"
     showgrid="false"
     inkscape:document-rotation="0"
     inkscape:current-layer="layer1"
     inkscape:document-units="px"
     inkscape:cy="9.707851"
     inkscape:cx="49.795309"
     inkscape:zoom="6.7054675"
     inkscape:pageshadow="2"
     inkscape:pageopacity="0.0"
     borderopacity="1.0"
     bordercolor="#666666"
     pagecolor="#ffffff"
     id="base" />
  <metadata
     id="metadata1850">
    <rdf:RDF>
      <cc:Work
         rdf:about="">
        <dc:format>image/svg+xml</dc:format>
        <dc:type
           rdf:resource="http://purl.org/dc/dcmitype/StillImage" />
        <dc:title />
      </cc:Work>
    </rdf:RDF>
  </metadata>
  <g
     id="layer1"
     inkscape:groupmode="layer"
     inkscape:label="Layer 1">
    <g
       style="display:inline;stroke-width:1.00002"
       transform="matrix(0.99998348,0,0,0.99998348,9.6214864e-6,-280.06178)"
       id="g4723">
      <path
         id="path47"
         d="M 0.52929688,280.06641 A 0.52921795,0.52921795 0 0 0 0,280.5957 v 11.55664 c 0,1.22507 0.78702311,2.31573 1.9492188,2.70313 l 6.3496093,2.11719 a 0.52921795,0.52921795 0 0 0 0.3359375,0 l 6.3496094,-2.11719 c 1.162196,-0.3874 1.949219,-1.47806 1.949219,-2.70313 V 280.5957 a 0.52921795,0.52921795 0 0 0 -0.529297,-0.52929 z M 1.0585938,281.125 H 15.875 v 11.02734 c 0,0.77359 -0.492678,1.45459 -1.226562,1.69922 l -6.1816411,2.06055 -6.1835938,-2.06055 c -0.7338846,-0.24463 -1.2246094,-0.92563 -1.2246093,-1.69922 z"
         style="color:#000000;font-style:normal;font-variant:normal;font-weight:normal;font-stretch:normal;font-size:medium;line-height:normal;font-family:sans-serif;font-variant-ligatures:normal;font-variant-position:normal;font-variant-caps:normal;font-variant-numeric:normal;font-variant-alternates:normal;font-variant-east-asian:normal;font-feature-settings:normal;font-variation-settings:normal;text-indent:0;text-align:start;text-decoration:none;text-decoration-line:none;text-decoration-style:solid;text-decoration-color:#000000;letter-spacing:normal;word-spacing:normal;text-transform:none;writing-mode:lr-tb;direction:ltr;text-orientation:mixed;dominant-baseline:auto;baseline-shift:baseline;text-anchor:start;white-space:normal;shape-padding:0;shape-margin:0;inline-size:0;clip-rule:nonzero;display:inline;overflow:visible;visibility:visible;opacity:1;isolation:auto;mix-blend-mode:normal;color-interpolation:sRGB;color-interpolation-filters:linearRGB;solid-color:#000000;solid-opacity:1;vector-effect:none;fill:#000000;fill-opacity:1;fill-rule:evenodd;stroke:none;stroke-width:1.05835;stroke-linecap:round;stroke-linejoin:round;stroke-miterlimit:4;stroke-dasharray:none;stroke-dashoffset:0;stroke-opacity:1;color-rendering:auto;image-rendering:auto;shape-rendering:auto;text-rendering:auto;enable-background:accumulate;stop-color:#000000;stop-opacity:1" />
      <path
         id="path51"
         d="m 2.6464844,282.18359 a 0.52916503,0.52916503 0 0 0 -0.5292969,0.5293 v 1.58789 a 0.52916503,0.52916503 0 0 0 0.5292969,0.5293 0.52916503,0.52916503 0 0 0 0.5292968,-0.5293 v -1.58789 a 0.52916503,0.52916503 0 0 0 -0.5292968,-0.5293 z m 0,3.70313 a 0.52916503,0.52916503 0 0 0 -0.5292969,0.5293 v 1.58789 a 0.52916503,0.52916503 0 0 0 0.5292969,0.52929 0.52916503,0.52916503 0 0 0 0.5292968,-0.52929 v -1.58789 a 0.52916503,0.52916503 0 0 0 -0.5292968,-0.5293 z"
         style="color:#000000;font-style:normal;font-variant:normal;font-weight:normal;font-stretch:normal;font-size:medium;line-height:normal;font-family:sans-serif;font-variant-ligatures:normal;font-variant-position:normal;font-variant-caps:normal;font-variant-numeric:normal;font-variant-alternates:normal;font-variant-east-asian:normal;font-feature-settings:normal;font-variation-settings:normal;text-indent:0;text-align:start;text-decoration:none;text-decoration-line:none;text-decoration-style:solid;text-decoration-color:#000000;letter-spacing:normal;word-spacing:normal;text-transform:none;writing-mode:lr-tb;direction:ltr;text-orientation:mixed;dominant-baseline:auto;baseline-shift:baseline;text-anchor:start;white-space:normal;shape-padding:0;shape-margin:0;inline-size:0;clip-rule:nonzero;display:inline;overflow:visible;visibility:visible;opacity:1;isolation:auto;mix-blend-mode:normal;color-interpolation:sRGB;color-interpolation-filters:linearRGB;solid-color:#000000;solid-opacity:1;vector-effect:none;fill:#000000;fill-opacity:1;fill-rule:evenodd;stroke:none;stroke-width:1.05835;stroke-linecap:round;stroke-linejoin:round;stroke-miterlimit:4;stroke-dasharray:none;stroke-dashoffset:0;stroke-opacity:1;color-rendering:auto;image-rendering:auto;shape-rendering:auto;text-rendering:auto;enable-background:accumulate;stop-color:#000000;stop-opacity:1" />
      <path
         id="path55"
         d="m 14.287109,282.18359 a 0.52916503,0.52916503 0 0 0 -0.529297,0.5293 v 1.58789 a 0.52916503,0.52916503 0 0 0 0.529297,0.5293 0.52916503,0.52916503 0 0 0 0.529297,-0.5293 v -1.58789 a 0.52916503,0.52916503 0 0 0 -0.529297,-0.5293 z m 0,3.64453 a 0.52916503,0.52916503 0 0 0 -0.529297,0.5293 v 1.64649 a 0.52916503,0.52916503 0 0 0 0.529297,0.52929 0.52916503,0.52916503 0 0 0 0.529297,-0.52929 v -1.64649 a 0.52916503,0.52916503 0 0 0 -0.529297,-0.5293 z M 2.6464844,289.5918 a 0.52916503,0.52916503 0 0 0 -0.5292969,0.52929 v 1.76368 c -2e-7,0.54219 0.348911,1.02776 0.8632813,1.19921 l 1.0957031,0.36329 a 0.52916503,0.52916503 0 0 0 0.6679687,-0.33399 0.52916503,0.52916503 0 0 0 -0.3339844,-0.66992 l -1.09375,-0.36328 c -0.086057,-0.0287 -0.140625,-0.1046 -0.140625,-0.19531 v -1.76368 A 0.52916503,0.52916503 0 0 0 2.6464844,289.5918 Z m 11.6406246,0 a 0.52916503,0.52916503 0 0 0 -0.529297,0.52929 v 1.76368 c 0,0.0907 -0.05457,0.16662 -0.140624,0.19531 l -1.111329,0.36914 a 0.52916503,0.52916503 0 0 0 -0.333984,0.66992 0.52916503,0.52916503 0 0 0 0.669922,0.33398 l 1.109375,-0.36914 c 0.514369,-0.17145 0.865234,-0.65702 0.865234,-1.19921 v -1.76368 a 0.52916503,0.52916503 0 0 0 -0.529297,-0.52929 z m -7.9531246,3.52734 a 0.52916503,0.52916503 0 0 0 -0.4882813,0.36133 0.52916503,0.52916503 0 0 0 0.3339844,0.66992 l 2.1191406,0.70508 a 0.52921795,0.52921795 0 0 0 0.3359375,0 l 2.1074224,-0.70117 a 0.52916503,0.52916503 0 0 0 0.333984,-0.66992 0.52916503,0.52916503 0 0 0 -0.667969,-0.33594 l -1.9414061,0.64844 -1.9511719,-0.6504 a 0.52916503,0.52916503 0 0 0 -0.1816406,-0.0273 z"
         style="color:#000000;font-style:normal;font-variant:normal;font-weight:normal;font-stretch:normal;font-size:medium;line-height:normal;font-family:sans-serif;font-variant-ligatures:normal;font-variant-position:normal;font-variant-caps:normal;font-variant-numeric:normal;font-variant-alternates:normal;font-variant-east-asian:normal;font-feature-settings:normal;font-variation-settings:normal;text-indent:0;text-align:start;text-decoration:none;text-decoration-line:none;text-decoration-style:solid;text-decoration-color:#000000;letter-spacing:normal;word-spacing:normal;text-transform:none;writing-mode:lr-tb;direction:ltr;text-orientation:mixed;dominant-baseline:auto;baseline-shift:baseline;text-anchor:start;white-space:normal;shape-padding:0;shape-margin:0;inline-size:0;clip-rule:nonzero;display:inline;overflow:visible;visibility:visible;opacity:1;isolation:auto;mix-blend-mode:normal;color-interpolation:sRGB;color-interpolation-filters:linearRGB;solid-color:#000000;solid-opacity:1;vector-effect:none;fill:#000000;fill-opacity:1;fill-rule:evenodd;stroke:none;stroke-width:1.05835;stroke-linecap:round;stroke-linejoin:round;stroke-miterlimit:4;stroke-dasharray:none;stroke-dashoffset:0;stroke-opacity:1;color-rendering:auto;image-rendering:auto;shape-rendering:auto;text-rendering:auto;enable-background:accumulate;stop-color:#000000;stop-opacity:1" />
    </g>
  </g>
</svg>
